<?xml version="1.0" encoding="UTF-8"?>
<svg id="Layer_1" xmlns="http://www.w3.org/2000/svg" version="1.1" viewBox="0 0 595.28 841.89">
  <!-- Generator: Adobe Illustrator 29.8.0, SVG Export Plug-In . SVG Version: 2.1.1 Build 160)  -->
  <defs>
    <style>
      .st0 {
        fill: #d8d8d8;
      }

      .st1, .st2 {
        fill: #4f5ba9;
      }

      .st3 {
        fill: #231f20;
      }

      .st3, .st4, .st5, .st2 {
        font-family: MyriadPro-Regular, 'Myriad Pro';
        font-size: 18px;
      }

      .st6 {
        stroke: #4f5ba9;
        stroke-width: 7px;
      }

      .st6, .st7, .st8, .st9, .st10, .st11 {
        stroke-miterlimit: 10;
      }

      .st6, .st7, .st8, .st10, .st11 {
        fill: none;
      }

      .st7 {
        stroke: #b0b0b0;
      }

      .st8 {
        stroke: #383737;
      }

      .st4, .st12 {
        fill: #009444;
      }

      .st13 {
        fill: #383737;
      }

      .st14, .st5 {
        fill: #9c2d2c;
      }

      .st9 {
        stroke: #6f7173;
      }

      .st9, .st15 {
        fill: #d1d3d4;
      }

      .st16 {
        fill: #e5e5e5;
      }

      .st17 {
        fill: #6b6b6b;
      }

      .st18 {
        fill: #686867;
      }

      .st10 {
        stroke: #018ebb;
      }

      .st19 {
        fill: #6d6e71;
      }

      .st20 {
        fill: #dfe4e5;
      }

      .st11 {
        stroke: #071f30;
        stroke-width: 10px;
      }

      .st21 {
        fill: #414042;
      }

      .st22 {
        fill: #898989;
      }
    </style>
  </defs>
  <path id="Tube" class="st11" d="M246.31,269.1s68.97-1.38,82.76,35.17-13.52,96.73-10.34,120c4.14,30.34,11.36,283.01-94.84,295.42-47.27,5.52-67.83,5.57-67.83,5.57"/>
  <g id="Lens">
    <rect class="st19" x="344.24" y="460.83" width="73.1" height="9.66"/>
    <rect class="st19" x="356.66" y="445.66" width="46.21" height="20.69"/>
  </g>
  <g>
    <path id="Angled_x5F_tube_x5F_connector" class="st18" d="M197.34,244.97s-2.64,20.62,2.76,30.34c3.45,6.21,45.52,2.76,45.52,2.76l-4.14-17.93h-27.59l.69-17.24-17.24,2.07Z"/>
    <rect class="st18" x="238.03" y="250.48" width="8.28" height="36.55"/>
  </g>
  <g id="Ball">
    <path id="Ball1" data-name="Ball" class="st19" d="M219.68,159.96c1.17,9.25-6.61,17.03-15.86,15.86-6.3-.79-11.39-5.88-12.18-12.18-1.17-9.25,6.61-17.03,15.86-15.86,6.3.79,11.39,5.88,12.18,12.18Z"/>
    <path class="st20" d="M197.83,157.63l2.6-2.04c.24-.23.42-.49.52-.8.16-.3.23-.62.22-.96.01-.34-.06-.67-.22-.96-.1-.31-.27-.58-.52-.8-.48-.44-1.1-.76-1.77-.73l-.66.09c-.42.12-.79.33-1.1.64l-2.6,2.04c-.24.23-.42.49-.52.8-.16.3-.23.62-.22.96-.01.34.06.67.22.96.1.31.27.58.52.8.48.44,1.1.76,1.77.73l.66-.09c.42-.12.79-.33,1.1-.64h0Z"/>
    <path class="st20" d="M210.5,157.12s.08.03.12.05l-.6-.25c.16.07.31.16.46.26l-.51-.39c.16.12.3.26.42.42l-.39-.51c.12.16.22.33.3.51l-.25-.6c.08.18.13.37.16.57l-.09-.66c.02.18.02.35,0,.53-.01.34.06.67.22.96.1.31.27.58.52.8.23.24.49.42.8.52.3.16.62.23.96.22l.66-.09c.42-.12.79-.33,1.1-.64l.39-.51c.23-.39.34-.81.34-1.26.02-.13.02-.26.01-.4-.02-.28-.07-.55-.11-.83,0-.07-.02-.13-.04-.19-.05-.22-.15-.43-.24-.64s-.18-.44-.3-.64c-.17-.28-.38-.54-.6-.79-.09-.1-.18-.19-.28-.28-.25-.21-.52-.43-.81-.59s-.61-.29-.93-.4c-.33-.1-.66-.12-1-.04-.33.02-.64.11-.93.3-.29.16-.53.37-.7.64-.22.24-.37.52-.45.85l-.09.66c0,.45.12.87.34,1.26l.39.51c.31.31.68.52,1.1.64h0Z"/>
    <path class="st20" d="M205.74,164.98s.07-.01.1-.02l-.66.09c.12-.02.25-.02.37,0l-.66-.09c.12.02.25.05.36.1l-.6-.25c.12.05.22.11.32.19l-.51-.39c.09.07.17.15.24.24l-.39-.51s.03.04.05.07c.16.29.37.53.64.7.24.22.52.37.85.45.33.1.66.12,1,.04.33-.02.64-.11.93-.3l.51-.39c.31-.31.52-.68.64-1.1l.09-.66c0-.45-.12-.87-.34-1.26-.19-.28-.4-.59-.68-.81-.19-.15-.38-.3-.57-.44-.03-.02-.06-.04-.1-.06-.03-.02-.06-.03-.09-.05-.22-.11-.45-.2-.68-.29-.06-.03-.13-.05-.2-.06-.04,0-.07-.02-.11-.02-.25-.04-.5-.08-.75-.1-.07,0-.15,0-.22,0-.29.02-.59.06-.87.12-.33.08-.61.23-.85.45-.27.18-.49.41-.64.7-.18.29-.28.6-.3.93-.07.33-.06.66.04,1l.25.6c.22.38.52.67.9.9l.6.25c.44.12.89.12,1.33,0h0Z"/>
    <path class="st20" d="M192.82,164.95l1.42,2.91c.16.29.37.53.64.7.24.22.52.37.85.45.33.1.66.12,1,.04.33-.02.64-.11.93-.3.53-.34,1-.86,1.15-1.49l.09-.66c0-.45-.12-.87-.34-1.26l-1.42-2.91c-.16-.29-.37-.53-.64-.7-.24-.22-.52-.37-.85-.45-.33-.1-.66-.12-1-.04-.33.02-.64.11-.93.3-.53.34-1,.86-1.15,1.49l-.09.66c0,.45.12.87.34,1.26h0Z"/>
    <path class="st20" d="M213.09,164.5c-.07.31-.17.61-.3.9l.25-.6c-.19.44-.43.85-.72,1.23l.39-.51c-.13.17-.27.33-.42.49-.24.23-.42.49-.52.8-.16.3-.23.62-.22.96-.01.34.06.67.22.96.1.31.27.58.52.8.48.44,1.1.76,1.77.73l.66-.09c.42-.12.79-.33,1.1-.64.32-.33.59-.7.87-1.06.15-.21.29-.43.42-.65.22-.4.39-.82.55-1.24.1-.25.18-.5.24-.76.1-.33.12-.66.04-1-.02-.33-.11-.64-.3-.93-.16-.29-.37-.53-.64-.7-.24-.22-.52-.37-.85-.45l-.66-.09c-.45,0-.87.12-1.26.34-.54.35-.99.86-1.15,1.49h0Z"/>
    <path class="st20" d="M205.43,152.14l1.16-.28c.33-.08.61-.23.85-.45.27-.18.49-.41.64-.7.18-.29.28-.6.3-.93.07-.33.06-.66-.04-1l-.25-.6c-.22-.38-.52-.67-.9-.9l-.6-.25c-.44-.12-.89-.12-1.33,0l-1.16.28c-.33.08-.61.23-.85.45-.27.18-.49.41-.64.7-.18.29-.28.6-.3.93-.07.33-.06.66.04,1l.25.6c.22.38.52.67.9.9l.6.25c.44.12.89.12,1.33,0h0Z"/>
  </g>
  <g id="Ball_x5F_Blower">
    <rect class="st15" x="185.62" y="191.17" width="40.69" height="57.24"/>
    <rect class="st15" x="191.48" y="170.14" width="28.28" height="21.38"/>
  </g>
  <g id="BallHolder">
    <rect class="st21" x="182.17" y="192.55" width="50.34" height="37.93"/>
    <rect class="st21" x="221.48" y="205.66" width="173.1" height="36.55" transform="translate(40.93 -47.52) rotate(9.45)"/>
    <rect class="st21" x="352.52" y="212.55" width="48.97" height="225.52"/>
    <rect class="st21" x="353.23" y="160.91" width="56.65" height="14.83" transform="translate(322.02 -244.44) rotate(57.99)"/>
    <rect class="st21" x="386.31" y="185.66" width="15.17" height="40.69"/>
    <rect class="st21" x="337.34" y="397.38" width="79.31" height="58.62"/>
    <rect class="st21" x="293.21" y="417.38" width="77.93" height="23.45"/>
  </g>
  <g id="Camera">
    <rect class="st19" x="323.55" y="489.1" width="113.1" height="57.93"/>
    <rect class="st19" x="338.72" y="481.52" width="80" height="22.76"/>
  </g>
  <rect id="Cs-mount" class="st21" x="335.97" y="471.17" width="87.59" height="15.17"/>
  <circle id="BallHolder_x5F_Aligner_x5F_Screw" class="st15" cx="375.97" cy="425.66" r="9.66"/>
  <rect class="st9" x="352.52" y="167.03" width="41.38" height="7.59" transform="translate(311.64 -234.97) rotate(56.78)"/>
  <g id="Tube1" data-name="Tube">
    <g>
      <path class="st10" d="M333.21,154.62c14.02.23,21.15,1.15,35.17,1.38"/>
      <path class="st10" d="M328.38,149.32c12.64-1.08,21.15,2.24,33.79,1.16"/>
      <path class="st10" d="M322.17,416c2.76-17.93,62.07-83.45,77.93-106.21,8.09-11.61,13.1-81.38,6.9-112.41-4.71-23.55-11.03-41.38-24.14-42.76"/>
      <path class="st10" d="M326.31,416.69c2.76-17.93,62.32-76,78.18-98.75,8.09-11.61,13.1-81.38,6.9-112.41-4.71-23.55-11.03-41.38-24.14-42.76"/>
    </g>
    <path class="st10" d="M313.21,440.14s16.94,104.34-83.75,118.82c-54.68,7.86-73.4-16.72-73.4-16.72"/>
    <path class="st10" d="M325.62,440.83s-8.99,109.46-46.92,124.63c-18.21,7.29-74.49,34.21-112.42,17.65"/>
  </g>
  <g id="LEDs">
    <path class="st14" d="M132.33,531.19c-.09-.05-.18-.11-.26-.17l.51.39c-.12-.1-.22-.2-.31-.32l.39.51c-.09-.12-.16-.24-.22-.38l.25.6c-.07-.18-.12-.37-.15-.57l.09.66c-.03-.23-.02-.46,0-.69l-.09.66c.04-.29.12-.57.24-.84l-.25.6c.11-.25.25-.48.41-.7l-.39.51c.15-.19.32-.36.51-.51l-.51.39c.17-.13.35-.24.54-.32l-.6.25c.18-.07.35-.12.54-.15l-.66.09c.29-.04.57-.04.85,0l-.66-.09c.32.05.62.13.91.25l-.6-.25c.33.15.63.33.92.55l-.51-.39c.35.28.66.59.93.95l-.39-.51c.29.39.53.81.72,1.26l-.25-.6c.13.32.24.66.29,1l-.09-.66c.01.08.01.17,0,.25l.09-.66c0,.08-.02.16-.05.23l.25-.6c-.05.11-.1.2-.16.3l.39-.51c-.2.25-.44.46-.7.66l.51-.39c-.38.29-.79.52-1.23.71l.6-.25c-.47.19-.96.33-1.47.4l.66-.09c-.47.06-.93.07-1.39.01l.66.09c-.42-.06-.83-.16-1.22-.33l.6.25c-.3-.13-.57-.29-.83-.48l.51.39c-.25-.2-.48-.42-.68-.67l.39.51c-.15-.2-.27-.41-.36-.64l.25.6c-.1-.26-.17-.52-.21-.79l.09.66c-.04-.33-.04-.66,0-1l-.09.66c.05-.39.16-.76.31-1.12l-.25.6c.13-.3.3-.58.5-.84l-.39.51c.17-.21.35-.39.56-.56l-.51.39c.19-.14.38-.26.6-.35l-.6.25c.19-.08.39-.13.59-.17l-.66.09c.22-.03.43-.03.65,0l-.66-.09c.3.04.58.12.86.24l-.6-.25c.3.13.57.29.83.49l-.51-.39c.29.23.54.48.77.77l-.39-.51c.22.29.41.6.55.94l-.25-.6c.14.33.24.68.29,1.04l-.09-.66c.04.32.04.64,0,.96l.09-.66c-.04.28-.12.54-.22.8l.25-.6c-.1.21-.21.4-.35.59l.39-.51c-.18.23-.39.44-.62.63l.51-.39c-.24.18-.49.32-.76.44l.6-.25c-.27.11-.55.18-.84.22l.66-.09c-.22.02-.44.02-.67,0l.66.09c-.23-.03-.44-.09-.65-.17l.6.25c-.16-.07-.32-.16-.46-.26l.51.39c-.16-.13-.3-.26-.43-.42l.39.51c-.14-.19-.26-.38-.35-.6l.25.6c-.1-.25-.17-.5-.21-.76l.09.66c-.03-.23-.03-.46,0-.69l-.09.66c.03-.23.08-.44.17-.65l-.25.6c.07-.15.15-.3.25-.44l-.39.51c.11-.14.22-.25.36-.36l-.51.39c.12-.09.24-.16.38-.22l-.6.25c.16-.06.32-.11.49-.13l-.66.09c.17-.02.34-.01.51,0l-.66-.09c.2.03.4.09.59.16l-.6-.25c.22.09.42.21.61.35l-.51-.39c.16.13.3.27.43.43l-.39-.51c.1.14.18.28.25.43l-.25-.6c.05.13.09.26.11.4l-.09-.66c.02.14.02.28,0,.42l.09-.66c-.01.09-.03.17-.05.26-.33,1.26.42,2.77,1.75,3.08s2.72-.39,3.08-1.75c.41-1.57-.12-3.33-1.39-4.36s-2.95-1.61-4.55-1.07c-1.51.52-2.74,1.85-2.98,3.45-.12.84-.14,1.62.1,2.45s.62,1.48,1.17,2.1,1.26,1.02,2.03,1.3c.83.3,1.7.27,2.55.14,1.53-.23,2.83-1.21,3.71-2.44.94-1.32,1.11-3.04.77-4.59s-1.4-2.96-2.71-3.91-2.99-1.33-4.53-.92c-1.33.35-2.39,1.28-3.14,2.41-.66,1-1,2.27-1.02,3.46-.02,1.43.49,2.76,1.42,3.84,1.78,2.1,4.99,2.61,7.52,1.78,1.4-.46,2.74-1.24,3.65-2.42,1.28-1.65.67-3.89-.38-5.5-.91-1.38-2.12-2.41-3.67-3-1.4-.54-3.13-.42-4.42.34-2.32,1.38-3.47,4.69-2.08,7.1.37.65.95,1.2,1.6,1.57,1.14.64,2.78.31,3.42-.9s.32-2.73-.9-3.42h0Z"/>
    <path class="st14" d="M140.3,526.2l6.83-3.19c.54-.25,1-.94,1.15-1.49.16-.6.09-1.4-.25-1.93s-.86-1-1.49-1.15c-.69-.16-1.29-.05-1.93.25l-6.83,3.19c-.54.25-1,.94-1.15,1.49-.16.6-.09,1.4.25,1.93s.86,1,1.49,1.15c.69.16,1.29.05,1.93-.25h0Z"/>
    <path class="st14" d="M145.36,533.39c3.34-.14,6.67-.6,9.92-1.38,1.27-.31,2.15-1.82,1.75-3.08-.43-1.32-1.71-2.08-3.08-1.75-1.49.36-2.99.63-4.51.87-.19.03-.12.02.22-.03-.09.01-.18.02-.27.03-.21.03-.42.05-.63.07-.36.04-.72.08-1.07.11-.78.07-1.56.12-2.33.15-1.3.05-2.56,1.11-2.5,2.5.06,1.31,1.1,2.56,2.5,2.5h0Z"/>
    <path class="st14" d="M140.23,540.29c1.85,2.49,3.92,4.79,6.27,6.82.51.44,1.08.73,1.77.73.61,0,1.35-.27,1.77-.73s.76-1.1.73-1.77-.23-1.34-.73-1.77c-1.98-1.71-3.79-3.61-5.4-5.68l.39.51c-.16-.21-.32-.42-.48-.63-.4-.54-.82-.96-1.49-1.15-.6-.16-1.4-.09-1.93.25s-1,.86-1.15,1.49-.14,1.4.25,1.93h0Z"/>
    <path class="st14" d="M132.46,522.86l3.48-5.22c.35-.52.41-1.34.25-1.93s-.61-1.21-1.15-1.49c-.58-.31-1.28-.46-1.93-.25s-1.12.59-1.49,1.15l-3.48,5.22c-.35.52-.41,1.34-.25,1.93s.61,1.21,1.15,1.49c.58.31,1.28.46,1.93.25s1.12-.59,1.49-1.15h0Z"/>
    <path class="st14" d="M133.37,547.18l2.37,4.61c.28.54.92.99,1.49,1.15s1.4.09,1.93-.25,1-.86,1.15-1.49c.15-.68.07-1.31-.25-1.93l-2.37-4.61c-.28-.54-.92-.99-1.49-1.15s-1.4-.09-1.93.25-1,.86-1.15,1.49c-.15.68-.07,1.31.25,1.93h0Z"/>
    <path class="st14" d="M144.11,571.58c.04-.09.09-.16.14-.24l-.39.51c.08-.1.16-.18.25-.26l-.51.39c.12-.09.25-.17.39-.23l-.6.25c.18-.07.35-.12.54-.14l-.66.09c.23-.02.45-.02.68,0l-.66-.09c.19.03.38.08.56.16l-.6-.25c.19.08.37.19.54.31l-.51-.39c.25.2.47.42.67.66l-.39-.51c.53.69.9,1.48,1.24,2.28l-.25-.6c.26.62.47,1.27.57,1.94l-.09-.66c.04.35.05.7,0,1.05l.09-.66c-.03.2-.08.38-.15.57l.25-.6c-.08.18-.18.35-.3.51l.39-.51c-.12.14-.24.25-.38.36l.51-.39c-.13.09-.26.16-.4.23l.6-.25c-.18.07-.35.12-.54.15l.66-.09c-.31.04-.61.03-.92,0l.66.09c-.49-.08-.96-.23-1.41-.42l.6.25c-1.08-.46-2.15-1.04-3.08-1.75l.51.39c-.44-.34-.83-.71-1.17-1.15l.39.51c-.24-.31-.43-.64-.58-1l.25.6c-.13-.32-.22-.64-.27-.98l.09.66c-.04-.33-.05-.67-.01-1l-.09.66c.04-.26.1-.5.19-.74l-.25.6c.1-.24.23-.45.39-.66l-.39.51c.12-.14.25-.27.4-.39l-.51.39c.16-.12.33-.22.51-.3l-.6.25c.21-.08.42-.14.64-.17l-.66.09c.26-.03.51-.03.76,0l-.66-.09c.33.05.64.13.94.26l-.6-.25c.34.15.66.33.96.55l-.51-.39c.3.23.56.49.8.79l-.39-.51c.19.25.35.51.47.79l-.25-.6c.13.3.21.6.25.92l-.09-.66c.04.37.04.73,0,1.09l.09-.66c-.06.4-.16.78-.31,1.16l.25-.6c-.13.3-.3.57-.49.83l.39-.51c-.16.2-.33.37-.53.53l.51-.39c-.2.15-.4.28-.62.38l.6-.25c-.24.1-.48.17-.73.2l.66-.09c-.26.03-.51.03-.77,0l.66.09c-.29-.04-.56-.11-.83-.22l.6.25c-.23-.1-.44-.23-.64-.38l.51.39c-.14-.12-.27-.25-.39-.39l.39.51c-.11-.15-.21-.3-.28-.48l.25.6c-.06-.15-.11-.3-.14-.46l.09.66c-.02-.16-.02-.32-.01-.48l-.09.66c.03-.2.07-.38.15-.56l-.25.6c.09-.21.21-.41.35-.59l-.39.51c.13-.15.26-.29.42-.42l-.51.39c.16-.12.32-.22.49-.3l-.6.25c.18-.07.35-.12.54-.15l-.66.09c.12-.01.24-.01.37,0l-.66-.09c.16.02.31.06.46.12l-.6-.25.09.04c.62.29,1.25.44,1.93.25.58-.16,1.21-.61,1.49-1.15.59-1.11.36-2.82-.9-3.42-.7-.33-1.39-.56-2.18-.5s-1.56.28-2.22.73c-1.29.89-2.16,2.25-2.23,3.83-.13,2.83,2.6,4.98,5.28,4.89s4.94-2.21,5.37-4.85c.23-1.41.11-2.74-.49-4.05-.48-1.05-1.32-1.87-2.24-2.53-1.73-1.24-4.37-1.6-6.2-.34-1.13.78-1.97,1.96-2.19,3.33-.24,1.51,0,2.98.74,4.32,1.14,2.08,3.42,3.47,5.54,4.38,1.4.6,2.84,1,4.37.66s2.83-1.62,3.32-3.16c.4-1.27.2-2.73-.21-3.96-.39-1.16-.91-2.42-1.63-3.42-.52-.73-1.05-1.31-1.8-1.82-.71-.48-1.52-.68-2.36-.75-1.58-.14-3.33.68-4.06,2.12-.59,1.16-.34,2.77.9,3.42,1.14.6,2.79.35,3.42-.9h0Z"/>
    <path class="st14" d="M147.45,565.15c.22-.47.49-.92.81-1.33l-.39.51c.37-.47.79-.9,1.26-1.27l-.51.39c.11-.08.22-.17.33-.24.29-.16.53-.37.7-.64.22-.24.37-.52.45-.85.1-.33.12-.66.04-1-.02-.33-.11-.64-.3-.93-.34-.53-.86-1-1.49-1.15l-.66-.09c-.45,0-.87.12-1.26.34-.69.48-1.36,1.01-1.9,1.65s-1.04,1.33-1.4,2.09c-.18.29-.28.6-.3.93-.07.33-.06.66.04,1,.08.33.23.61.45.85.18.27.41.49.7.64.58.31,1.28.46,1.93.25l.6-.25c.38-.22.67-.52.9-.9h0Z"/>
    <path class="st14" d="M153.55,571.82c.11-.05.21-.1.32-.15l-.6.25c.53-.22,1.08-.36,1.64-.44l-.66.09c.57-.07,1.13-.07,1.7,0l-.66-.09c.14.02.28.04.42.07.66.13,1.33.1,1.93-.25.52-.3,1.01-.9,1.15-1.49.15-.64.11-1.36-.25-1.93-.34-.53-.86-1.02-1.49-1.15-.92-.18-1.85-.28-2.78-.17-.55.07-1.1.14-1.64.29s-1.08.39-1.59.63c-.54.26-1,.94-1.15,1.49-.16.6-.09,1.4.25,1.93s.86,1,1.49,1.15l.66.09c.45,0,.87-.12,1.26-.34h0Z"/>
    <path class="st14" d="M152.98,580.25s.07-.01.11-.02l-.66.09c.34-.04.69-.04,1.03,0l-.66-.09c.36.05.71.15,1.05.29l-.6-.25c.32.14.62.31.89.52l-.51-.39c.14.11.28.23.41.36.45.45,1.13.73,1.77.73.34.01.67-.06.96-.22.31-.1.58-.27.8-.52.44-.48.76-1.1.73-1.77s-.26-1.28-.73-1.77c-.11-.12-.24-.23-.36-.33-.28-.23-.57-.46-.88-.66-.45-.28-.96-.49-1.46-.65s-1.04-.23-1.57-.28c-.55-.05-1.09.04-1.64.12-.33.08-.61.23-.85.45-.27.18-.49.41-.64.7-.18.29-.28.6-.3.93-.07.33-.06.66.04,1,.2.6.57,1.19,1.15,1.49l.6.25c.44.12.89.12,1.33,0h0Z"/>
    <path class="st14" d="M140.62,584.3l.58,3.48c.08.33.23.61.45.85.18.27.41.49.7.64.29.18.6.28.93.3.33.07.66.06,1-.04.6-.2,1.19-.57,1.49-1.15l.25-.6c.12-.44.12-.89,0-1.33l-.58-3.48c-.08-.33-.23-.61-.45-.85-.18-.27-.41-.49-.7-.64-.29-.18-.6-.28-.93-.3-.33-.07-.66-.06-1,.04-.6.2-1.19.57-1.49,1.15l-.25.6c-.12.44-.12.89,0,1.33h0Z"/>
    <path class="st14" d="M122.64,523.77c-.17.04-.34.07-.52.09l.66-.09c-.63.08-1.26.08-1.88,0l.66.09c-.7-.09-1.37-.28-2.02-.55l.6.25c-.58-.25-1.12-.57-1.63-.95l.51.39c-.33-.26-.64-.54-.92-.86-.88-.97-2.65-.96-3.54,0-.95,1.04-.94,2.5,0,3.54,2.35,2.59,6.02,3.61,9.4,2.91,1.28-.27,2.14-1.85,1.75-3.08-.44-1.36-1.7-2.03-3.08-1.75h0Z"/>
    <path class="st14" d="M120.94,532l-4.66,1.7c-.62.23-1.15.56-1.49,1.15-.31.54-.45,1.33-.25,1.93s.57,1.19,1.15,1.49,1.3.48,1.93.25l4.66-1.7c.62-.23,1.15-.56,1.49-1.15.31-.54.45-1.33.25-1.93s-.57-1.19-1.15-1.49-1.3-.48-1.93-.25h0Z"/>
    <path class="st14" d="M121.74,540.62c-.4.69-.84,1.34-1.32,1.97l.39-.51c-.9,1.16-1.94,2.2-3.1,3.1l.51-.39c-.07.05-.14.11-.21.16-.29.16-.53.37-.7.64-.22.24-.37.52-.45.85-.16.6-.09,1.4.25,1.93s.86,1,1.49,1.15,1.4.14,1.93-.25c1.11-.83,2.17-1.72,3.09-2.77s1.75-2.16,2.44-3.36c.33-.56.43-1.3.25-1.93-.16-.58-.61-1.21-1.15-1.49-.58-.31-1.28-.46-1.93-.25s-1.16.57-1.49,1.15h0Z"/>
    <path class="st14" d="M139.58,560.41l-3.48-3.48c-.45-.45-1.13-.73-1.77-.73-.34-.01-.67.06-.96.22-.31.1-.58.27-.8.52-.44.48-.76,1.1-.73,1.77s.25,1.29.73,1.77l3.48,3.48c.45.45,1.13.73,1.77.73.34.01.67-.06.96-.22.31-.1.58-.27.8-.52.44-.48.76-1.1.73-1.77s-.25-1.29-.73-1.77h0Z"/>
    <path class="st14" d="M130.85,563.86c-.28-.02-.55-.04-.83-.08l.66.09c-.94-.14-1.85-.39-2.73-.76l.6.25c-.84-.36-1.62-.82-2.35-1.37l.51.39c-.56-.44-1.08-.92-1.55-1.46-.86-.99-2.66-.95-3.54,0-.97,1.05-.92,2.48,0,3.54,2.32,2.66,5.72,4.19,9.22,4.41,1.31.08,2.56-1.21,2.5-2.5-.06-1.43-1.1-2.41-2.5-2.5h0Z"/>
    <path class="st14" d="M130.17,573.36l-2.9,1.74c-.54.33-.98.88-1.15,1.49-.1.33-.12.66-.04,1,.02.33.11.64.3.93.34.53.86,1,1.49,1.15s1.34.1,1.93-.25l2.9-1.74c.54-.33.98-.88,1.15-1.49.1-.33.12-.66.04-1-.02-.33-.11-.64-.3-.93-.34-.53-.86-1-1.49-1.15s-1.34-.1-1.93.25h0Z"/>
    <path class="st14" d="M133.71,578.37c-.96,1.16-1.93,2.32-2.89,3.49-.24.23-.42.49-.52.8-.16.3-.23.62-.22.96-.01.34.06.67.22.96.1.31.27.58.52.8.48.44,1.1.76,1.77.73.63-.03,1.35-.23,1.77-.73l2.89-3.49c.24-.23.42-.49.52-.8.16-.3.23-.62.22-.96.01-.34-.06-.67-.22-.96-.1-.31-.27-.58-.52-.8-.48-.44-1.1-.76-1.77-.73-.63.03-1.35.23-1.77.73h0Z"/>
  </g>
  <rect class="st0" x="223.55" y="208.38" width="17.6" height="6.89"/>
  <g id="labels">
    <line class="st7" x1="388.84" y1="425.7" x2="450.82" y2="409.63"/>
    <line class="st7" x1="404.14" y1="369.08" x2="447" y2="354.54"/>
    <line class="st7" x1="414.86" y1="232.1" x2="453.88" y2="216.03"/>
    <line class="st7" x1="368.94" y1="175.48" x2="259.52" y2="135.68"/>
    <line class="st7" x1="190.65" y1="154.81" x2="121.78" y2="133.39"/>
    <line class="st7" x1="189.12" y1="183.89" x2="105.71" y2="166.29"/>
    <line class="st7" x1="220.49" y1="211.44" x2="162.56" y2="203.1"/>
    <line class="st7" x1="192.94" y1="267.3" x2="164.42" y2="278.36"/>
    <line class="st7" x1="326.86" y1="326.22" x2="205.95" y2="329.28"/>
    <line class="st7" x1="417.92" y1="463.96" x2="450.82" y2="456.31"/>
    <line class="st7" x1="424.81" y1="480.03" x2="466.87" y2="504.32"/>
    <line class="st7" x1="412.49" y1="545.02" x2="453.37" y2="589.62"/>
  </g>
  <rect class="st22" x="155.13" y="717.84" width="18.58" height="15.8"/>
  <rect class="st22" x="153.27" y="798.21" width="18.58" height="15.8"/>
  <g id="AirFlowmettre">
    <rect class="st16" x="120.1" y="705.76" width="36.24" height="116.14"/>
    <line class="st8" x1="119.82" y1="729.92" x2="133.76" y2="729.92"/>
    <line class="st8" x1="120.75" y1="747.57" x2="130.97" y2="747.57"/>
    <line class="st8" x1="118.89" y1="760.58" x2="130.04" y2="760.58"/>
    <line class="st8" x1="120.75" y1="772.66" x2="131.9" y2="773.58"/>
    <line class="st8" x1="119.82" y1="785.66" x2="131.9" y2="785.66"/>
    <line class="st8" x1="120.75" y1="794.95" x2="131.9" y2="794.95"/>
    <rect class="st17" x="115.17" y="803.32" width="5.57" height="12.08"/>
    <rect class="st13" x="100.31" y="799.6" width="17.65" height="16.72"/>
  </g>
  <path class="st6" d="M170.92,806.1s76.31-11.16,146.8-.93"/>
  <line class="st7" x1="176.5" y1="729.92" x2="287.99" y2="738.28"/>
  <line class="st7" x1="168.13" y1="794.03" x2="296.35" y2="759.65"/>
  <line class="st7" x1="316.79" y1="798.67" x2="369.75" y2="787.52"/>
  <line class="st7" x1="123.83" y1="516.7" x2="89.45" y2="497.19"/>
  <text class="st4" transform="translate(57.37 126.2)"><tspan x="0" y="0">Walking Ball</tspan></text>
  <text class="st4" transform="translate(20.78 169.64)"><tspan x="0" y="0">Air Blower</tspan></text>
  <text class="st3" transform="translate(20.12 202.81)"><tspan x="0" y="0">M3-6mm Capless</tspan></text>
  <text class="st3" transform="translate(21.12 262.21)"><tspan x="0" y="0">Angled</tspan><tspan x="0" y="21.6">Push-in Connector</tspan><tspan x="0" y="43.2">M3 - 4mm</tspan></text>
  <text class="st3" transform="translate(121.83 334.89)"><tspan x="0" y="0">4mm tube</tspan></text>
  <text class="st3" transform="translate(30.92 496.11)"><tspan x="0" y="0">IR LED</tspan></text>
  <g>
    <path class="st1" d="M219.49,102.52l-1.26,3.82h-1.62l4.12-12.14h1.89l4.14,12.14h-1.67l-1.3-3.82h-4.3ZM223.47,101.3l-1.19-3.49c-.27-.79-.45-1.51-.63-2.21h-.04c-.18.72-.38,1.46-.61,2.2l-1.19,3.51h3.65Z"/>
    <path class="st1" d="M228.43,93.55h1.58v12.78h-1.58v-12.78Z"/>
    <path class="st1" d="M239.97,103.96c0,.9.02,1.69.07,2.38h-1.4l-.09-1.42h-.04c-.41.7-1.33,1.62-2.88,1.62-1.37,0-3.01-.76-3.01-3.82v-5.1h1.58v4.83c0,1.66.5,2.77,1.94,2.77,1.06,0,1.8-.74,2.09-1.44.09-.23.14-.52.14-.81v-5.35h1.58v6.34Z"/>
    <path class="st1" d="M242.6,99.98c0-.9-.02-1.64-.07-2.36h1.39l.07,1.4h.05c.49-.83,1.3-1.6,2.74-1.6,1.19,0,2.09.72,2.47,1.75h.04c.27-.49.61-.86.97-1.13.52-.4,1.1-.61,1.93-.61,1.15,0,2.86.76,2.86,3.78v5.13h-1.55v-4.93c0-1.67-.61-2.68-1.89-2.68-.9,0-1.6.67-1.87,1.44-.07.22-.13.5-.13.79v5.38h-1.55v-5.22c0-1.39-.61-2.39-1.82-2.39-.99,0-1.71.79-1.96,1.58-.09.23-.13.5-.13.77v5.26h-1.55v-6.36Z"/>
    <path class="st1" d="M259.38,95.17c.02.54-.38.97-1.01.97-.56,0-.95-.43-.95-.97s.41-.99.99-.99.97.43.97.99ZM257.61,106.34v-8.71h1.58v8.71h-1.58Z"/>
    <path class="st1" d="M261.82,99.98c0-.9-.02-1.64-.07-2.36h1.4l.09,1.44h.04c.43-.83,1.44-1.64,2.88-1.64,1.21,0,3.08.72,3.08,3.71v5.2h-1.58v-5.02c0-1.4-.52-2.57-2.02-2.57-1.04,0-1.85.74-2.12,1.62-.07.2-.11.47-.11.74v5.24h-1.58v-6.36Z"/>
    <path class="st1" d="M273.58,95.17c.02.54-.38.97-1.01.97-.56,0-.95-.43-.95-.97s.41-.99.99-.99.97.43.97.99ZM271.81,106.34v-8.71h1.58v8.71h-1.58Z"/>
    <path class="st1" d="M283.32,103.96c0,.9.02,1.69.07,2.38h-1.4l-.09-1.42h-.04c-.41.7-1.33,1.62-2.88,1.62-1.37,0-3.01-.76-3.01-3.82v-5.1h1.58v4.83c0,1.66.5,2.77,1.94,2.77,1.06,0,1.8-.74,2.09-1.44.09-.23.14-.52.14-.81v-5.35h1.58v6.34Z"/>
    <path class="st1" d="M285.94,99.98c0-.9-.02-1.64-.07-2.36h1.39l.07,1.4h.05c.49-.83,1.3-1.6,2.74-1.6,1.19,0,2.09.72,2.47,1.75h.04c.27-.49.61-.86.97-1.13.52-.4,1.1-.61,1.93-.61,1.15,0,2.86.76,2.86,3.78v5.13h-1.55v-4.93c0-1.67-.61-2.68-1.89-2.68-.9,0-1.6.67-1.87,1.44-.07.22-.13.5-.13.79v5.38h-1.55v-5.22c0-1.39-.61-2.39-1.82-2.39-.99,0-1.71.79-1.96,1.58-.09.23-.13.5-.13.77v5.26h-1.55v-6.36Z"/>
    <path class="st1" d="M315.05,101.01c-.09-1.69-.2-3.73-.18-5.24h-.05c-.42,1.42-.92,2.94-1.53,4.61l-2.14,5.89h-1.19l-1.96-5.78c-.58-1.71-1.06-3.28-1.41-4.72h-.04c-.04,1.51-.13,3.55-.23,5.37l-.32,5.2h-1.49l.85-12.14h2l2.07,5.87c.5,1.49.92,2.83,1.22,4.09h.05c.31-1.22.74-2.56,1.28-4.09l2.16-5.87h2l.76,12.14h-1.53l-.31-5.33Z"/>
    <path class="st1" d="M321.22,95.17c.02.54-.38.97-1.01.97-.56,0-.95-.43-.95-.97s.41-.99.99-.99.97.43.97.99ZM319.46,106.34v-8.71h1.58v8.71h-1.58Z"/>
    <path class="st1" d="M323.67,100.34c0-1.03-.02-1.91-.07-2.72h1.39l.05,1.71h.07c.4-1.17,1.35-1.91,2.41-1.91.18,0,.31.02.45.05v1.49c-.16-.04-.32-.05-.54-.05-1.12,0-1.91.85-2.12,2.03-.04.22-.07.47-.07.74v4.65h-1.57v-6Z"/>
    <path class="st1" d="M329.63,100.34c0-1.03-.02-1.91-.07-2.72h1.39l.05,1.71h.07c.4-1.17,1.35-1.91,2.41-1.91.18,0,.31.02.45.05v1.49c-.16-.04-.32-.05-.54-.05-1.12,0-1.91.85-2.12,2.03-.04.22-.07.47-.07.74v4.65h-1.57v-6Z"/>
    <path class="st1" d="M343.22,101.91c0,3.22-2.23,4.63-4.34,4.63-2.36,0-4.18-1.73-4.18-4.48,0-2.92,1.91-4.63,4.32-4.63s4.2,1.82,4.2,4.48ZM336.31,102c0,1.91,1.1,3.35,2.65,3.35s2.65-1.42,2.65-3.39c0-1.48-.74-3.35-2.61-3.35s-2.68,1.73-2.68,3.38Z"/>
    <path class="st1" d="M345.21,100.34c0-1.03-.02-1.91-.07-2.72h1.39l.05,1.71h.07c.4-1.17,1.35-1.91,2.41-1.91.18,0,.31.02.45.05v1.49c-.16-.04-.32-.05-.54-.05-1.12,0-1.91.85-2.12,2.03-.04.22-.07.47-.07.74v4.65h-1.57v-6Z"/>
    <path class="st1" d="M227.75,122.61c-.09-1.69-.2-3.73-.18-5.24h-.05c-.41,1.42-.92,2.94-1.53,4.61l-2.14,5.89h-1.19l-1.96-5.78c-.58-1.71-1.06-3.28-1.4-4.72h-.04c-.04,1.51-.13,3.55-.23,5.37l-.32,5.2h-1.49l.85-12.14h2l2.07,5.87c.5,1.49.92,2.83,1.22,4.09h.05c.31-1.22.74-2.56,1.28-4.09l2.16-5.87h2l.76,12.14h-1.53l-.31-5.33Z"/>
    <path class="st1" d="M238.28,122.25h-4.72v4.38h5.26v1.31h-6.82v-12.14h6.55v1.31h-4.99v3.83h4.72v1.3Z"/>
    <path class="st1" d="M248.07,121.96c0,3.98-1.48,6.18-4.07,6.18-2.29,0-3.84-2.14-3.87-6.01,0-3.92,1.69-6.09,4.07-6.09s3.87,2.2,3.87,5.92ZM241.72,122.14c0,3.04.94,4.77,2.38,4.77,1.62,0,2.39-1.89,2.39-4.88s-.74-4.77-2.38-4.77c-1.39,0-2.39,1.69-2.39,4.88Z"/>
    <path class="st1" d="M256.51,117.57h-4.47l-.45,3.01c.27-.04.52-.07.95-.07.9,0,1.8.2,2.52.63.92.52,1.67,1.53,1.67,3.01,0,2.29-1.82,4-4.36,4-1.28,0-2.36-.36-2.92-.72l.4-1.21c.49.29,1.44.65,2.5.65,1.49,0,2.77-.97,2.77-2.54-.02-1.51-1.03-2.59-3.37-2.59-.67,0-1.19.07-1.62.13l.76-5.62h5.6v1.33Z"/>
    <path class="st1" d="M262.94,122.48v1.17h-4.45v-1.17h4.45Z"/>
    <path class="st1" d="M274.33,127.4c-.7.25-2.09.67-3.73.67-1.84,0-3.35-.47-4.54-1.6-1.04-1.01-1.69-2.63-1.69-4.52.02-3.62,2.5-6.27,6.57-6.27,1.4,0,2.5.31,3.02.56l-.38,1.28c-.65-.29-1.46-.52-2.68-.52-2.95,0-4.88,1.84-4.88,4.88s1.85,4.9,4.68,4.9c1.03,0,1.73-.14,2.09-.32v-3.62h-2.47v-1.26h4v5.83Z"/>
    <path class="st1" d="M283.95,121.96c0,3.98-1.48,6.18-4.07,6.18-2.29,0-3.84-2.14-3.87-6.01,0-3.92,1.69-6.09,4.07-6.09s3.87,2.2,3.87,5.92ZM277.59,122.14c0,3.04.94,4.77,2.38,4.77,1.62,0,2.39-1.89,2.39-4.88s-.74-4.77-2.38-4.77c-1.39,0-2.39,1.69-2.39,4.88Z"/>
    <path class="st1" d="M288.84,117.71h-.04l-2.03,1.1-.31-1.21,2.56-1.37h1.35v11.7h-1.53v-10.23Z"/>
  </g>
  <text class="st2" transform="translate(460.81 201.24)"><tspan x="0" y="0">Optic Fiber</tspan><tspan x="0" y="21.6">M137L02</tspan></text>
  <text class="st5" transform="translate(412.95 345.83)"><tspan x="0" y="0">BallHolder_110Deg.stl</tspan></text>
  <text class="st3" transform="translate(456.52 401.44)"><tspan x="0" y="0">M4 20mm</tspan></text>
  <text class="st3" transform="translate(456.81 437.53)"><tspan x="0" y="0">InfiniStix</tspan><tspan x="0" y="21.6">94mm / 0.50x</tspan></text>
  <text class="st2" transform="translate(476.03 500.27)"><tspan x="0" y="0">C-Mount</tspan><tspan x="0" y="21.6">Adapter</tspan><tspan x="0" y="43.2">CML05</tspan></text>
  <text class="st3" transform="translate(431.74 604.48)"><tspan x="0" y="0">Camera</tspan><tspan x="0" y="21.6">CM3-U3-13Y3M-CS</tspan></text>
  <line class="st7" x1="117.5" y1="718.3" x2="83.12" y2="698.79"/>
  <text class="st3" transform="translate(24.98 665.59)"><tspan x="0" y="0">Air Flow Sensor</tspan><tspan x="0" y="21.6">0.1 -&gt; 1.5 l/min</tspan></text>
  <text class="st3" transform="translate(293.56 734.41)"><tspan x="0" y="0">Push-in Connector R 1/4&quot; - 4mm</tspan></text>
  <text class="st3" transform="translate(301.5 763)"><tspan x="0" y="0" xml:space="preserve"> Push-in Connector R 1/4&quot; - 6mm</tspan></text>
  <text class="st3" transform="translate(379.34 794.66)"><tspan x="0" y="0">6mm tube</tspan></text>
  <rect class="st1" x="437.77" y="14.49" width="17.65" height="20.44"/>
  <rect class="st12" x="438.7" y="45.15" width="18.58" height="18.58"/>
  <rect class="st14" x="435.91" y="84.95" width="22.3" height="16.72"/>
  <text class="st2" transform="translate(467.36 29.99)"><tspan x="0" y="0">Thorlabs</tspan></text>
  <text class="st4" transform="translate(469.93 55.37)"><tspan x="0" y="0">Manufactured/</tspan><tspan x="0" y="21.6">Homemade</tspan></text>
  <text class="st5" transform="translate(469.36 99.53)"><tspan x="0" y="0">3D-Printed</tspan></text>
</svg>