<?xml version="1.0" encoding="UTF-8"?>
<svg id="Layer_1" xmlns="http://www.w3.org/2000/svg" version="1.1" viewBox="0 0 841.89 595.28">
  <!-- Generator: Adobe Illustrator 29.8.0, SVG Export Plug-In . SVG Version: 2.1.1 Build 160)  -->
  <defs>
    <style>
      .st0 {
        fill: #21409a;
      }

      .st0, .st1, .st2, .st3 {
        font-size: 12px;
      }

      .st0, .st1, .st2, .st3, .st4, .st5, .st6 {
        font-family: MyriadPro-Regular, 'Myriad Pro';
      }

      .st7, .st5 {
        fill: #4f5ba9;
      }

      .st8, .st3, .st6 {
        fill: #231f20;
      }

      .st9 {
        stroke: #cccccb;
      }

      .st9, .st10, .st11 {
        stroke-miterlimit: 10;
      }

      .st9, .st11 {
        fill: none;
      }

      .st12 {
        fill: #515251;
      }

      .st13 {
        fill: #4a494a;
      }

      .st1 {
        fill: #be1e2d;
      }

      .st14 {
        fill: #464547;
      }

      .st15, .st4 {
        fill: #9c2d2c;
      }

      .st10 {
        stroke: #6f7173;
      }

      .st10, .st16 {
        fill: #d1d3d4;
      }

      .st17 {
        fill: #e5e5e5;
      }

      .st18 {
        fill: #a09f9f;
      }

      .st19 {
        fill: #c6c6c5;
      }

      .st20 {
        fill: #999;
      }

      .st21 {
        fill: #353535;
      }

      .st22 {
        fill: #6d6e71;
      }

      .st11 {
        stroke: #444445;
      }

      .st4, .st5 {
        font-size: 18px;
      }

      .st23 {
        fill: #dfe4e5;
      }

      .st24 {
        fill: #8f9092;
      }

      .st6 {
        font-size: 21px;
      }

      .st25 {
        fill: #d2d2d1;
      }

      .st26 {
        fill: #414042;
      }
    </style>
  </defs>
  <g>
    <g>
      <g id="Lens">
        <rect class="st8" x="148.22" y="237.56" width="35.68" height="4.71"/>
        <rect class="st8" x="154.28" y="230.16" width="22.55" height="10.1"/>
      </g>
      <g id="Ball">
        <path id="Ball1" data-name="Ball" class="st22" d="M87.42,90.71c.57,4.51-3.23,8.31-7.74,7.74-3.08-.39-5.56-2.87-5.95-5.95-.57-4.51,3.23-8.31,7.74-7.74,3.08.39,5.56,2.87,5.95,5.95Z"/>
        <path class="st23" d="M76.78,89.59l1.27-1c.12-.11.21-.25.26-.4.08-.15.11-.31.11-.48,0-.17-.03-.33-.11-.48-.05-.15-.14-.29-.26-.4-.24-.22-.55-.38-.88-.37l-.33.04c-.21.06-.4.17-.55.32l-1.27,1c-.12.11-.21.25-.26.4-.08.15-.11.31-.11.48,0,.17.03.33.11.48.05.15.14.29.26.4.24.22.55.38.88.37l.33-.04c.21-.06.4-.17.55-.32h0Z"/>
        <path class="st23" d="M82.94,89.35s.04.01.06.02l-.3-.13c.08.03.15.08.22.13l-.25-.2c.08.06.14.13.2.21l-.2-.25c.06.08.11.16.15.25l-.13-.3c.04.09.06.18.08.28l-.04-.33c.01.09.01.17,0,.26,0,.17.03.33.11.48.05.15.14.29.26.4.11.12.25.21.4.26.15.08.31.11.48.11l.33-.04c.21-.06.4-.17.55-.32l.2-.25c.11-.19.17-.41.17-.63,0-.06.01-.13,0-.19,0-.14-.03-.28-.05-.41,0-.03-.01-.06-.02-.09-.03-.11-.07-.21-.12-.32s-.09-.22-.15-.31c-.09-.14-.19-.27-.3-.39-.04-.05-.09-.09-.14-.13-.13-.1-.26-.21-.4-.3s-.3-.14-.46-.2c-.17-.05-.33-.06-.5-.02-.17,0-.32.06-.46.15-.15.08-.26.19-.35.32-.11.12-.19.26-.22.43l-.04.33c0,.23.06.44.17.63l.2.25c.16.15.34.26.55.32h0Z"/>
        <path class="st23" d="M80.62,93.19s.03,0,.05,0l-.33.04c.06,0,.12,0,.18,0l-.33-.04c.06,0,.12.03.18.05l-.3-.13c.06.02.11.05.16.09l-.25-.2s.08.07.12.11l-.2-.25s.02.02.02.03c.08.15.19.26.32.35.12.11.26.19.43.22.17.05.33.06.5.02.17,0,.32-.06.46-.15l.25-.2c.15-.16.26-.34.32-.55l.04-.33c0-.23-.06-.44-.17-.63-.08-.11-.16-.23-.26-.33-.02-.03-.05-.05-.08-.07-.09-.07-.19-.15-.29-.22-.02-.01-.03-.02-.05-.03-.01,0-.03-.02-.05-.02-.11-.05-.23-.1-.34-.14-.03-.01-.06-.02-.1-.03-.02,0-.04,0-.05-.01-.12-.02-.25-.04-.37-.05-.04,0-.07,0-.11,0-.15,0-.29.03-.43.06-.16.04-.3.11-.43.22-.14.09-.24.21-.32.35-.09.14-.14.3-.15.46-.04.17-.03.33.02.5l.13.3c.11.19.26.34.45.45l.3.13c.22.06.44.06.66,0h0Z"/>
        <path class="st23" d="M74.29,93.16l.69,1.42c.08.15.19.26.32.35.12.11.26.19.43.22.17.05.33.06.5.02.17,0,.32-.06.46-.15.27-.17.5-.43.57-.75l.04-.33c0-.23-.06-.44-.17-.63l-.69-1.42c-.08-.15-.19-.26-.32-.35-.12-.11-.26-.19-.43-.22-.17-.05-.33-.06-.5-.02-.17,0-.32.06-.46.15-.27.17-.5.43-.57.75l-.04.33c0,.23.06.44.17.63h0Z"/>
        <path class="st23" d="M84.18,92.92c-.04.15-.08.3-.15.44l.13-.3c-.09.21-.21.41-.35.6l.2-.25c-.06.08-.13.16-.21.24-.12.11-.21.25-.26.4-.08.15-.11.31-.11.48,0,.17.03.33.11.48.05.15.14.29.26.4.24.22.55.38.88.37l.33-.04c.21-.06.4-.17.55-.32.16-.16.29-.35.43-.53.08-.1.14-.21.2-.32.11-.2.19-.41.27-.61.05-.12.09-.25.12-.37.05-.17.06-.33.02-.5,0-.17-.06-.32-.15-.46-.08-.15-.19-.26-.32-.35-.12-.11-.26-.19-.43-.22l-.33-.04c-.23,0-.44.06-.63.17-.27.17-.5.43-.57.75h0Z"/>
        <path class="st23" d="M80.31,86.32l.57-.14c.08-.02.15-.06.21-.11.07-.04.12-.1.16-.18.05-.07.07-.15.07-.23.02-.08.01-.17-.01-.25l-.06-.15c-.06-.09-.13-.17-.22-.22l-.15-.06c-.11-.03-.22-.03-.33,0l-.57.14c-.08.02-.15.06-.21.11-.07.04-.12.1-.16.18-.05.07-.07.15-.07.23-.02.08-.01.17.01.25l.06.15c.06.09.13.17.22.22l.15.06c.11.03.22.03.33,0h0Z"/>
      </g>
      <g id="Ball_x5F_Blower">
        <rect class="st16" x="70.8" y="105.94" width="19.86" height="27.94"/>
        <rect class="st16" x="73.66" y="95.68" width="13.8" height="10.44"/>
      </g>
      <g id="BallHolder">
        <rect class="st26" x="69.11" y="106.62" width="24.57" height="18.51"/>
        <rect class="st26" x="88.3" y="113.01" width="84.49" height="17.84" transform="translate(21.79 -19.77) rotate(9.45)"/>
        <rect class="st26" x="152.26" y="116.38" width="23.9" height="110.07"/>
        <rect class="st26" x="152.61" y="91.17" width="27.65" height="7.24" transform="translate(158.58 -96.58) rotate(57.99)"/>
        <rect class="st26" x="168.75" y="103.25" width="7.41" height="19.86"/>
        <rect class="st26" x="144.85" y="206.59" width="38.71" height="28.61"/>
        <rect class="st26" x="123.31" y="216.35" width="38.04" height="11.44"/>
      </g>
      <g id="Camera">
        <rect class="st14" x="138.12" y="251.36" width="55.2" height="28.28"/>
        <rect class="st14" x="145.53" y="247.66" width="39.05" height="11.11"/>
      </g>
      <rect id="Cs-mount" class="st26" x="144.18" y="242.61" width="42.75" height="7.41"/>
      <rect class="st10" x="152.26" y="94.16" width="20.2" height="3.7" transform="translate(153.72 -92.41) rotate(56.78)"/>
    </g>
    <g>
      <rect class="st24" x="121.7" y="258.09" width="89.92" height="58.59"/>
      <rect class="st24" x="153.03" y="202.4" width="11.6" height="96.88"/>
      <rect class="st24" x="168.7" y="203.27" width="11.6" height="96.88"/>
    </g>
    <circle id="BallHolder_x5F_Aligner_x5F_Screw" class="st25" cx="165.9" cy="221.06" r="5.7"/>
    <rect class="st18" x="108.94" y="347.7" width="20.3" height="165.64"/>
    <rect class="st18" x="207.85" y="344.82" width="20.3" height="165.64"/>
    <rect class="st21" x="86.32" y="334.67" width="163.02" height="13.34"/>
    <rect class="st12" x="119.96" y="315.52" width="95.72" height="30.75"/>
    <circle class="st21" cx="167.83" cy="330.32" r="10.73"/>
    <ellipse class="st13" cx="135.99" cy="271.65" rx="3.74" ry="3.46"/>
    <ellipse class="st13" cx="195.91" cy="271.36" rx="3.74" ry="3.46"/>
    <ellipse class="st13" cx="136.28" cy="302.61" rx="3.74" ry="3.46"/>
    <ellipse class="st13" cx="196.2" cy="302.33" rx="3.74" ry="3.46"/>
    <text class="st6" transform="translate(59.12 44.52)"><tspan x="0" y="0">Posts-Mounted</tspan></text>
    <line class="st9" x1="120.83" y1="262.81" x2="91.68" y2="249.92"/>
    <line class="st9" x1="99.57" y1="267.52" x2="130.95" y2="272.82"/>
    <line class="st9" x1="120.26" y1="323.06" x2="81.59" y2="297.56"/>
    <line class="st9" x1="86.64" y1="344.36" x2="57.49" y2="331.47"/>
    <line class="st9" x1="109.06" y1="415.54" x2="79.91" y2="402.65"/>
    <text class="st1" transform="translate(5.84 229.39)"><tspan x="0" y="0">BallCameraHolder_</tspan><tspan x="0" y="14.4">Horizontal_RC2.stl</tspan></text>
    <text class="st3" transform="translate(52.22 270.11)"><tspan x="0" y="0">M3 6mm</tspan></text>
    <text class="st0" transform="translate(18.87 292.38)"><tspan x="0" y="0">Rail Carrier RC2</tspan></text>
    <text class="st0" transform="translate(16.14 324.43)"><tspan x="0" y="0">Rail RLA.../M</tspan></text>
    <text class="st0" transform="translate(9.36 398.03)"><tspan x="0" y="0">Optical Post TR../M</tspan></text>
  </g>
  <g>
    <g>
      <g id="Lens1" data-name="Lens">
        <rect class="st8" x="431.87" y="248.04" width="35.68" height="4.71"/>
        <rect class="st8" x="437.93" y="240.63" width="22.55" height="10.1"/>
      </g>
      <g id="Ball2" data-name="Ball">
        <path id="Ball3" data-name="Ball" class="st22" d="M371.07,101.18c.57,4.51-3.23,8.31-7.74,7.74-3.08-.39-5.56-2.87-5.95-5.95-.57-4.51,3.23-8.31,7.74-7.74,3.08.39,5.56,2.87,5.95,5.95Z"/>
        <path class="st23" d="M360.43,100.07l1.27-1c.12-.11.21-.25.26-.4.08-.15.11-.31.11-.48,0-.17-.03-.33-.11-.48-.05-.15-.14-.29-.26-.4-.24-.22-.55-.38-.88-.37l-.33.04c-.21.06-.4.17-.55.32l-1.27,1c-.12.11-.21.25-.26.4-.08.15-.11.31-.11.48,0,.17.03.33.11.48.05.15.14.29.26.4.24.22.55.38.88.37l.33-.04c.21-.06.4-.17.55-.32h0Z"/>
        <path class="st23" d="M366.59,99.83s.04.01.06.02l-.3-.13c.08.03.15.08.22.13l-.25-.2c.08.06.14.13.2.21l-.2-.25c.06.08.11.16.15.25l-.13-.3c.04.09.06.18.08.28l-.04-.33c.01.09.01.17,0,.26,0,.17.03.33.11.48.05.15.14.29.26.4.11.12.25.21.4.26.15.08.31.11.48.11l.33-.04c.21-.06.4-.17.55-.32l.2-.25c.11-.19.17-.41.17-.63,0-.06.01-.13,0-.19,0-.14-.03-.28-.05-.41,0-.03-.01-.06-.02-.09-.03-.11-.07-.21-.12-.32s-.09-.22-.15-.31c-.09-.14-.19-.27-.3-.39-.04-.05-.09-.09-.14-.13-.13-.1-.26-.21-.4-.3s-.3-.14-.46-.2c-.17-.05-.33-.06-.5-.02-.17,0-.32.06-.46.15-.15.08-.26.19-.35.32-.11.12-.19.26-.22.43l-.04.33c0,.23.06.44.17.63l.2.25c.16.15.34.26.55.32h0Z"/>
        <path class="st23" d="M364.28,103.66s.03,0,.05,0l-.33.04c.06,0,.12,0,.18,0l-.33-.04c.06,0,.12.03.18.05l-.3-.13c.06.02.11.05.16.09l-.25-.2s.08.07.12.11l-.2-.25s.02.02.02.03c.08.15.19.26.32.35.12.11.26.19.43.22.17.05.33.06.5.02.17,0,.32-.06.46-.15l.25-.2c.15-.16.26-.34.32-.55l.04-.33c0-.23-.06-.44-.17-.63-.08-.11-.16-.23-.26-.33-.02-.03-.05-.05-.08-.07-.09-.07-.19-.15-.29-.22-.02-.01-.03-.02-.05-.03-.01,0-.03-.02-.05-.02-.11-.05-.23-.1-.34-.14-.03-.01-.06-.02-.1-.03-.02,0-.04,0-.05-.01-.12-.02-.25-.04-.37-.05-.04,0-.07,0-.11,0-.15,0-.29.03-.43.06-.16.04-.3.11-.43.22-.14.09-.24.21-.32.35-.09.14-.14.3-.15.46-.04.17-.03.33.02.5l.13.3c.11.19.26.34.45.45l.3.13c.22.06.44.06.66,0h0Z"/>
        <path class="st23" d="M357.94,103.64l.69,1.42c.08.15.19.26.32.35.12.11.26.19.43.22.17.05.33.06.5.02.17,0,.32-.06.46-.15.27-.17.5-.43.57-.75l.04-.33c0-.23-.06-.44-.17-.63l-.69-1.42c-.08-.15-.19-.26-.32-.35-.12-.11-.26-.19-.43-.22-.17-.05-.33-.06-.5-.02-.17,0-.32.06-.46.15-.27.17-.5.43-.57.75l-.04.33c0,.23.06.44.17.63h0Z"/>
        <path class="st23" d="M367.83,103.4c-.04.15-.08.3-.15.44l.13-.3c-.09.21-.21.41-.35.6l.2-.25c-.06.08-.13.16-.21.24-.12.11-.21.25-.26.4-.08.15-.11.31-.11.48,0,.17.03.33.11.48.05.15.14.29.26.4.24.22.55.38.88.37l.33-.04c.21-.06.4-.17.55-.32.16-.16.29-.35.43-.53.08-.1.14-.21.2-.32.11-.2.19-.41.27-.61.05-.12.09-.25.12-.37.05-.17.06-.33.02-.5,0-.17-.06-.32-.15-.46-.08-.15-.19-.26-.32-.35-.12-.11-.26-.19-.43-.22l-.33-.04c-.23,0-.44.06-.63.17-.27.17-.5.43-.57.75h0Z"/>
        <path class="st23" d="M363.96,96.79l.57-.14c.08-.02.15-.06.21-.11.07-.04.12-.1.16-.18.05-.07.07-.15.07-.23.02-.08.01-.17-.01-.25l-.06-.15c-.06-.09-.13-.17-.22-.22l-.15-.06c-.11-.03-.22-.03-.33,0l-.57.14c-.08.02-.15.06-.21.11-.07.04-.12.1-.16.18-.05.07-.07.15-.07.23-.02.08-.01.17.01.25l.06.15c.06.09.13.17.22.22l.15.06c.11.03.22.03.33,0h0Z"/>
      </g>
      <g id="Ball_x5F_Blower1" data-name="Ball_x5F_Blower">
        <rect class="st16" x="354.45" y="116.42" width="19.86" height="27.94"/>
        <rect class="st16" x="357.31" y="106.15" width="13.8" height="10.44"/>
      </g>
      <g id="BallHolder1" data-name="BallHolder">
        <rect class="st26" x="352.77" y="117.09" width="24.57" height="18.51"/>
        <rect class="st26" x="371.95" y="123.49" width="84.49" height="17.84" transform="translate(27.35 -66.19) rotate(9.45)"/>
        <rect class="st26" x="435.91" y="126.86" width="23.9" height="110.07"/>
        <rect class="st26" x="436.26" y="101.65" width="27.65" height="7.24" transform="translate(300.75 -332.17) rotate(57.99)"/>
        <rect class="st26" x="452.4" y="113.73" width="7.41" height="19.86"/>
        <rect class="st26" x="428.5" y="217.07" width="38.71" height="28.61"/>
        <rect class="st26" x="406.96" y="226.83" width="38.04" height="11.44"/>
      </g>
      <g id="Camera1" data-name="Camera">
        <rect class="st14" x="421.77" y="261.84" width="55.2" height="28.28"/>
        <rect class="st14" x="429.18" y="258.14" width="39.05" height="11.11"/>
      </g>
      <rect id="Cs-mount1" data-name="Cs-mount" class="st26" x="427.83" y="253.09" width="42.75" height="7.41"/>
      <rect class="st10" x="435.91" y="104.64" width="20.2" height="3.7" transform="translate(290.73 -324.96) rotate(56.78)"/>
    </g>
    <g>
      <rect class="st24" x="405.36" y="268.57" width="89.92" height="58.59"/>
      <rect class="st24" x="405.15" y="213.03" width="41.99" height="96.88"/>
    </g>
    <circle id="BallHolder_x5F_Aligner_x5F_Screw1" data-name="BallHolder_x5F_Aligner_x5F_Screw" class="st25" cx="449.55" cy="231.54" r="5.7"/>
    <rect class="st12" x="405.04" y="314.81" width="49.94" height="79.66"/>
    <rect class="st21" x="416.54" y="287.05" width="27.76" height="185.06"/>
    <rect class="st21" x="399.46" y="345.42" width="6.41" height="26.34"/>
    <rect class="st24" x="388.66" y="446.49" width="89.92" height="29.3"/>
    <rect class="st24" x="396.49" y="463.15" width="14.35" height="29.3"/>
    <rect class="st24" x="457.76" y="461.02" width="14.35" height="29.3"/>
    <rect class="st21" x="344.3" y="496.31" width="175.45" height="17.79"/>
    <rect class="st12" x="407.29" y="475.95" width="51.25" height="30.75"/>
    <ellipse class="st13" cx="480.28" cy="283.13" rx="3.74" ry="3.46"/>
    <ellipse class="st13" cx="480.57" cy="314.1" rx="3.74" ry="3.46"/>
    <text class="st6" transform="translate(340.11 48.62)"><tspan x="0" y="0">Rails-Mounted</tspan></text>
  </g>
  <g>
    <g>
      <g id="Lens2" data-name="Lens">
        <rect class="st8" x="685.68" y="244.57" width="35.68" height="4.71"/>
        <rect class="st8" x="691.74" y="237.17" width="22.55" height="10.1"/>
      </g>
      <g id="Ball4" data-name="Ball">
        <path id="Ball5" data-name="Ball" class="st22" d="M624.88,97.72c.57,4.51-3.23,8.31-7.74,7.74-3.08-.39-5.56-2.87-5.95-5.95-.57-4.51,3.23-8.31,7.74-7.74,3.08.39,5.56,2.87,5.95,5.95Z"/>
        <path class="st23" d="M614.23,96.6l1.27-1c.12-.11.21-.25.26-.4.08-.15.11-.31.11-.48,0-.17-.03-.33-.11-.48-.05-.15-.14-.29-.26-.4-.24-.22-.55-.38-.88-.37l-.33.04c-.21.06-.4.17-.55.32l-1.27,1c-.12.11-.21.25-.26.4-.08.15-.11.31-.11.48,0,.17.03.33.11.48.05.15.14.29.26.4.24.22.55.38.88.37l.33-.04c.21-.06.4-.17.55-.32h0Z"/>
        <path class="st23" d="M620.39,96.36s.04.01.06.02l-.3-.13c.08.03.15.08.22.13l-.25-.2c.08.06.14.13.2.21l-.2-.25c.06.08.11.16.15.25l-.13-.3c.04.09.06.18.08.28l-.04-.33c.01.09.01.17,0,.26,0,.17.03.33.11.48.05.15.14.29.26.4.11.12.25.21.4.26.15.08.31.11.48.11l.33-.04c.21-.06.4-.17.55-.32l.2-.25c.11-.19.17-.41.17-.63,0-.06.01-.13,0-.19,0-.14-.03-.28-.05-.41,0-.03-.01-.06-.02-.09-.03-.11-.07-.21-.12-.32s-.09-.22-.15-.31c-.09-.14-.19-.27-.3-.39-.04-.05-.09-.09-.14-.13-.13-.1-.26-.21-.4-.3s-.3-.14-.46-.2c-.17-.05-.33-.06-.5-.02-.17,0-.32.06-.46.15-.15.08-.26.19-.35.32-.11.12-.19.26-.22.43l-.04.33c0,.23.06.44.17.63l.2.25c.16.15.34.26.55.32h0Z"/>
        <path class="st23" d="M618.08,100.2s.03,0,.05,0l-.33.04c.06,0,.12,0,.18,0l-.33-.04c.06,0,.12.03.18.05l-.3-.13c.06.02.11.05.16.09l-.25-.2s.08.07.12.11l-.2-.25s.02.02.02.03c.08.15.19.26.32.35.12.11.26.19.43.22.17.05.33.06.5.02.17,0,.32-.06.46-.15l.25-.2c.15-.16.26-.34.32-.55l.04-.33c0-.23-.06-.44-.17-.63-.08-.11-.16-.23-.26-.33-.02-.03-.05-.05-.08-.07-.09-.07-.19-.15-.29-.22-.02-.01-.03-.02-.05-.03-.01,0-.03-.02-.05-.02-.11-.05-.23-.1-.34-.14-.03-.01-.06-.02-.1-.03-.02,0-.04,0-.05-.01-.12-.02-.25-.04-.37-.05-.04,0-.07,0-.11,0-.15,0-.29.03-.43.06-.16.04-.3.11-.43.22-.14.09-.24.21-.32.35-.09.14-.14.3-.15.46-.04.17-.03.33.02.5l.13.3c.11.19.26.34.45.45l.3.13c.22.06.44.06.66,0h0Z"/>
        <path class="st23" d="M611.75,100.17l.69,1.42c.08.15.19.26.32.35.12.11.26.19.43.22.17.05.33.06.5.02.17,0,.32-.06.46-.15.27-.17.5-.43.57-.75l.04-.33c0-.23-.06-.44-.17-.63l-.69-1.42c-.08-.15-.19-.26-.32-.35-.12-.11-.26-.19-.43-.22-.17-.05-.33-.06-.5-.02-.17,0-.32.06-.46.15-.27.17-.5.43-.57.75l-.04.33c0,.23.06.44.17.63h0Z"/>
        <path class="st23" d="M621.64,99.93c-.04.15-.08.3-.15.44l.13-.3c-.09.21-.21.41-.35.6l.2-.25c-.06.08-.13.16-.21.24-.12.11-.21.25-.26.4-.08.15-.11.31-.11.48,0,.17.03.33.11.48.05.15.14.29.26.4.24.22.55.38.88.37l.33-.04c.21-.06.4-.17.55-.32.16-.16.29-.35.43-.53.08-.1.14-.21.2-.32.11-.2.19-.41.27-.61.05-.12.09-.25.12-.37.05-.17.06-.33.02-.5,0-.17-.06-.32-.15-.46-.08-.15-.19-.26-.32-.35-.12-.11-.26-.19-.43-.22l-.33-.04c-.23,0-.44.06-.63.17-.27.17-.5.43-.57.75h0Z"/>
        <path class="st23" d="M617.77,93.33l.57-.14c.08-.02.15-.06.21-.11.07-.04.12-.1.16-.18.05-.07.07-.15.07-.23.02-.08.01-.17-.01-.25l-.06-.15c-.06-.09-.13-.17-.22-.22l-.15-.06c-.11-.03-.22-.03-.33,0l-.57.14c-.08.02-.15.06-.21.11-.07.04-.12.1-.16.18-.05.07-.07.15-.07.23-.02.08-.01.17.01.25l.06.15c.06.09.13.17.22.22l.15.06c.11.03.22.03.33,0h0Z"/>
      </g>
      <g id="Ball_x5F_Blower2" data-name="Ball_x5F_Blower">
        <rect class="st16" x="608.26" y="112.95" width="19.86" height="27.94"/>
        <rect class="st16" x="611.12" y="102.69" width="13.8" height="10.44"/>
      </g>
      <g id="BallHolder2" data-name="BallHolder">
        <rect class="st26" x="606.57" y="113.63" width="24.57" height="18.51"/>
        <rect class="st26" x="625.76" y="120.02" width="84.49" height="17.84" transform="translate(30.23 -107.9) rotate(9.45)"/>
        <rect class="st26" x="689.72" y="123.39" width="23.9" height="110.07"/>
        <rect class="st26" x="690.06" y="98.18" width="27.65" height="7.24" transform="translate(417.07 -549.01) rotate(57.99)"/>
        <rect class="st26" x="706.21" y="110.26" width="7.41" height="19.86"/>
        <rect class="st26" x="682.31" y="213.6" width="38.71" height="28.61"/>
        <rect class="st26" x="660.77" y="223.36" width="38.04" height="11.44"/>
      </g>
      <g id="Camera2" data-name="Camera">
        <rect class="st14" x="675.58" y="258.37" width="55.2" height="28.28"/>
        <rect class="st14" x="682.98" y="254.67" width="39.05" height="11.11"/>
      </g>
      <rect id="Cs-mount2" data-name="Cs-mount" class="st26" x="681.64" y="249.62" width="42.75" height="7.41"/>
      <rect class="st10" x="689.72" y="101.17" width="20.2" height="3.7" transform="translate(402.58 -538.85) rotate(56.78)"/>
    </g>
    <g>
      <rect class="st24" x="659.16" y="265.1" width="89.92" height="58.59"/>
      <rect class="st24" x="658.96" y="209.56" width="41.99" height="96.88"/>
    </g>
    <ellipse class="st13" cx="734.09" cy="279.66" rx="3.74" ry="3.46"/>
    <ellipse class="st13" cx="734.38" cy="310.63" rx="3.74" ry="3.46"/>
    <circle id="BallHolder_x5F_Aligner_x5F_Screw2" data-name="BallHolder_x5F_Aligner_x5F_Screw" class="st25" cx="703.36" cy="228.07" r="5.7"/>
    <rect class="st12" x="659.02" y="245.78" width="58.27" height="171.28"/>
    <rect class="st12" x="656.78" y="414.39" width="150.12" height="43.7"/>
    <rect class="st12" x="712.6" y="455.55" width="72.43" height="46.13"/>
    <rect class="st12" x="610.94" y="497.08" width="197.75" height="11.57"/>
    <rect class="st19" x="629.31" y="343.13" width="29.63" height="14.34"/>
    <rect class="st19" x="681.4" y="474.55" width="31.06" height="14.81"/>
    <circle class="st20" cx="734.92" cy="436.32" r="8.12"/>
    <rect x="656.07" y="421.98" width="151.01" height=".96"/>
    <rect x="658.46" y="414.34" width="58.78" height=".96"/>
    <rect x="712.46" y="457.82" width="74.07" height=".96"/>
    <rect x="712.46" y="496.53" width="72.16" height=".48"/>
    <text class="st6" transform="translate(546.97 46.84)"><tspan x="0" y="0">Macromanipulator-Mounted</tspan></text>
  </g>
  <line class="st9" x1="405.24" y1="258.42" x2="372.16" y2="243.44"/>
  <line class="st9" x1="390.79" y1="269.18" x2="476.54" y2="283.13"/>
  <line class="st9" x1="403.29" y1="336.24" x2="364.62" y2="310.74"/>
  <line class="st9" x1="416.68" y1="410.38" x2="379.61" y2="391.55"/>
  <line class="st9" x1="403.73" y1="445.09" x2="382.55" y2="426.26"/>
  <text class="st1" transform="translate(278.56 234.66)"><tspan x="0" y="0">BallCameraHolder_</tspan><tspan x="0" y="14.4">VerticalRC2_</tspan><tspan x="0" y="28.8">Sided.stl</tspan></text>
  <text class="st3" transform="translate(341.81 271.18)"><tspan x="0" y="0">M3 6mm</tspan></text>
  <text class="st0" transform="translate(301.89 305.56)"><tspan x="0" y="0">Rail Carrier RC2</tspan></text>
  <text class="st0" transform="translate(326.23 388.21)"><tspan x="0" y="0">Rail RLA.../M</tspan></text>
  <text class="st1" transform="translate(293.08 409.17)"><tspan x="0" y="0">BallCamera_</tspan><tspan x="0" y="14.4">VerticalRail_RC2.stl</tspan></text>
  <line class="st9" x1="410.21" y1="493.92" x2="379.61" y2="476.86"/>
  <line class="st9" x1="349.02" y1="507.16" x2="324.31" y2="496.28"/>
  <text class="st0" transform="translate(307.55 473.32)"><tspan x="0" y="0">Rail Carrier RC1</tspan></text>
  <text class="st0" transform="translate(273.78 492.74)"><tspan x="0" y="0">Rail RLA.../M</tspan></text>
  <line class="st9" x1="664.64" y1="237.95" x2="628.41" y2="214.89"/>
  <line class="st9" x1="647.95" y1="266.88" x2="733.7" y2="280.83"/>
  <line class="st9" x1="660.45" y1="333.95" x2="621.78" y2="308.45"/>
  <text class="st1" transform="translate(546.7 195.72)"><tspan x="0" y="0">BallCameraHolder_</tspan><tspan x="0" y="14.4">Macromanipulator.stl</tspan></text>
  <text class="st3" transform="translate(598.97 268.88)"><tspan x="0" y="0">M3 6mm</tspan></text>
  <text class="st2" transform="translate(559.05 303.26)"><tspan x="0" y="0">Macromaniuplator</tspan><tspan x="0" y="14.4">Hf3-A90</tspan></text>
  <line class="st11" x1="410.35" y1="446.93" x2="410.35" y2="475.05"/>
  <line class="st11" x1="449.32" y1="446.93" x2="449.76" y2="475.93"/>
  <circle class="st17" cx="432.93" cy="462.43" r="4.21"/>
  <line class="st9" x1="354.62" y1="444.09" x2="427.4" y2="462.43"/>
  <text class="st3" transform="translate(299.44 445.64)"><tspan x="0" y="0">M4 10mm</tspan></text>
  <rect class="st7" x="17.92" y="534.91" width="17.65" height="20.44"/>
  <rect class="st15" x="16.06" y="565.37" width="22.3" height="16.72"/>
  <text class="st5" transform="translate(47.51 550.41)"><tspan x="0" y="0">Thorlabs</tspan></text>
  <text class="st4" transform="translate(49.51 579.95)"><tspan x="0" y="0">3D-Printed</tspan></text>
</svg>